<?xml version="1.0" encoding="UTF-8"?>
<svg width="800" height="600" xmlns="http://www.w3.org/2000/svg">
    <defs>
        <style>
            .title { font-family: Arial, sans-serif; font-size: 20px; font-weight: bold; fill: #333; }
            .axis { font-family: Arial, sans-serif; font-size: 12px; fill: #666; }
            .grid { stroke: #ddd; stroke-width: 1; opacity: 0.5; }
            .line { stroke: #007acc; stroke-width: 2; fill: none; }
            .bar { fill: #007acc; opacity: 0.8; }
            .text { font-family: Arial, sans-serif; font-size: 10px; fill: #333; }
        </style>
    </defs>
    
    <!-- Título -->
    <text x="400" y="30" text-anchor="middle" class="title">Evolución de la Pérdida</text>
    
    <!-- Ejes -->
    <line x1="100" y1="500" x2="700" y2="500" stroke="#333" stroke-width="2"/>
    <line x1="100" y1="100" x2="100" y2="500" stroke="#333" stroke-width="2"/>
    
    <!-- Grid -->
    <line x1="100" y1="400" x2="700" y2="400" class="grid"/>
    <line x1="100" y1="300" x2="700" y2="300" class="grid"/>
    <line x1="100" y1="200" x2="700" y2="200" class="grid"/>
    <line x1="200" y1="100" x2="200" y2="500" class="grid"/>
    <line x1="300" y1="100" x2="300" y2="500" class="grid"/>
    <line x1="400" y1="100" x2="400" y2="500" class="grid"/>
    <line x1="500" y1="100" x2="500" y2="500" class="grid"/>
    <line x1="600" y1="100" x2="600" y2="500" class="grid"/>
    
    <!-- Datos -->
    <polyline points="100.0,100.0 131.57894736842104,153.63104471574087 163.1578947368421,217.69018220662537 194.73684210526318,262.25713265073307 226.31578947368422,302.8312825598012 257.89473684210526,336.15652116387866 289.47368421052636,359.768092863725 321.0526315789474,378.5119382982616 352.63157894736844,406.7695523908268 384.2105263157895,425.2513672201611 415.7894736842105,436.758183222627 447.36842105263156,446.133579089149 478.94736842105266,440.8228249780918 510.5263157894737,457.13315064446266 542.1052631578948,454.0276978177746 573.6842105263158,461.765910906628 605.2631578947369,463.5856379672929 636.8421052631579,476.3065715073606 668.421052631579,461.8279814281451 700.0,469.9091793524782" class="line"/>
    <circle cx="100.0" cy="100.0" r="3" fill="#007acc"/>
    <circle cx="131.57894736842104" cy="153.63104471574087" r="3" fill="#007acc"/>
    <circle cx="163.1578947368421" cy="217.69018220662537" r="3" fill="#007acc"/>
    <circle cx="194.73684210526318" cy="262.25713265073307" r="3" fill="#007acc"/>
    <circle cx="226.31578947368422" cy="302.8312825598012" r="3" fill="#007acc"/>
    <circle cx="257.89473684210526" cy="336.15652116387866" r="3" fill="#007acc"/>
    <circle cx="289.47368421052636" cy="359.768092863725" r="3" fill="#007acc"/>
    <circle cx="321.0526315789474" cy="378.5119382982616" r="3" fill="#007acc"/>
    <circle cx="352.63157894736844" cy="406.7695523908268" r="3" fill="#007acc"/>
    <circle cx="384.2105263157895" cy="425.2513672201611" r="3" fill="#007acc"/>
    <circle cx="415.7894736842105" cy="436.758183222627" r="3" fill="#007acc"/>
    <circle cx="447.36842105263156" cy="446.133579089149" r="3" fill="#007acc"/>
    <circle cx="478.94736842105266" cy="440.8228249780918" r="3" fill="#007acc"/>
    <circle cx="510.5263157894737" cy="457.13315064446266" r="3" fill="#007acc"/>
    <circle cx="542.1052631578948" cy="454.0276978177746" r="3" fill="#007acc"/>
    <circle cx="573.6842105263158" cy="461.765910906628" r="3" fill="#007acc"/>
    <circle cx="605.2631578947369" cy="463.5856379672929" r="3" fill="#007acc"/>
    <circle cx="636.8421052631579" cy="476.3065715073606" r="3" fill="#007acc"/>
    <circle cx="668.421052631579" cy="461.8279814281451" r="3" fill="#007acc"/>
    <circle cx="700.0" cy="469.9091793524782" r="3" fill="#007acc"/>
</svg>